<?xml version="1.0" standalone="no"?>
<!DOCTYPE svg PUBLIC "-//W3C//DTD SVG 20010904//EN"
 "http://www.w3.org/TR/2001/REC-SVG-20010904/DTD/svg10.dtd">
<svg version="1.0" xmlns="http://www.w3.org/2000/svg"
 width="300.000000pt" height="300.000000pt" viewBox="0 0 300.000000 300.000000"
 preserveAspectRatio="xMidYMid meet">
<metadata>
Created by potrace 1.10, written by Peter Selinger 2001-2011
</metadata>
<g transform="translate(0.000000,300.000000) scale(0.100000,-0.100000)"
fill="#000000" stroke="none">
<path d="M1381 2315 c-356 -81 -555 -473 -405 -800 36 -79 35 -78 83 -65 36 9
47 9 67 -5 13 -8 24 -24 24 -35 0 -10 4 -22 10 -25 13 -8 62 -107 56 -113 -3
-2 4 -16 14 -30 11 -13 20 -31 20 -39 0 -25 30 -73 46 -73 24 0 28 28 9 76 -9
25 -14 48 -11 51 8 8 8 8 37 -62 18 -44 30 -60 44 -60 30 0 30 36 1 94 -14 27
-22 52 -17 55 5 3 25 -24 44 -62 24 -46 41 -68 56 -70 28 -4 28 29 0 74 -11
19 -19 42 -17 51 3 12 15 -2 36 -43 17 -34 37 -64 45 -67 18 -7 57 19 57 37 0
16 -108 187 -128 204 -9 6 -37 12 -62 12 -55 0 -104 29 -133 77 -28 49 -11 73
53 73 28 0 50 3 50 8 0 4 -13 16 -28 27 -22 16 -43 20 -115 20 -102 0 -111 6
-122 84 -14 106 30 232 111 314 26 26 43 47 37 47 -13 0 -107 -96 -138 -141
-13 -21 -32 -56 -41 -78 -25 -64 -29 -40 -5 36 48 160 171 289 336 353 50 20
78 24 175 24 97 0 124 -4 175 -24 77 -30 126 -61 188 -119 28 -25 45 -36 39
-25 -16 30 -116 120 -168 150 -119 70 -294 99 -423 69z m-215 -176 c-110 -119
-170 -266 -132 -324 9 -14 20 -56 23 -92 5 -56 11 -72 37 -101 25 -27 42 -35
80 -39 44 -5 47 -7 41 -30 -8 -34 26 -105 64 -132 17 -12 58 -27 92 -33 46 -9
66 -18 85 -41 27 -33 31 -52 8 -43 -8 3 -25 -1 -37 -8 -19 -13 -25 -13 -41 0
-17 12 -22 12 -35 0 -9 -7 -27 -16 -41 -18 -14 -3 -31 -7 -39 -9 -9 -2 -17 4
-19 16 -6 26 -91 167 -110 183 -9 6 -35 12 -58 12 -52 0 -66 16 -96 115 -59
189 -1 406 143 541 40 38 88 74 97 74 2 0 -26 -32 -62 -71z"/>
<path d="M1651 2026 c-112 -112 -113 -113 -146 -103 -93 28 -195 -52 -195
-154 0 -46 43 -113 84 -133 123 -58 264 63 217 187 -8 21 -4 30 35 68 24 24
44 47 44 51 0 18 -21 6 -59 -34 -37 -39 -42 -41 -56 -27 -14 14 -6 25 92 122
93 92 110 104 122 92 12 -12 12 -16 0 -31 -12 -14 -11 -16 5 -13 10 2 24 12
30 21 8 13 5 22 -14 43 -13 14 -28 25 -34 25 -6 0 -62 -51 -125 -114z m-121
-141 c76 -39 80 -170 8 -217 -87 -57 -198 -2 -198 98 0 83 45 133 123 134 21
0 51 -7 67 -15z"/>
<path d="M1402 1774 c-27 -18 -28 -45 -4 -67 24 -22 45 -21 65 1 22 24 21 38
-3 62 -24 24 -29 24 -58 4z m48 -33 c0 -19 -23 -35 -34 -24 -14 15 -5 43 14
43 13 0 20 -7 20 -19z"/>
<path d="M1735 2022 c-15 -5 -21 -17 -23 -43 -4 -45 18 -67 52 -51 17 7 27 7
35 -1 17 -17 13 -27 -10 -27 -12 0 -19 -5 -17 -12 6 -17 29 -21 60 -9 22 8 25
15 24 53 -1 42 -2 43 -36 43 -19 0 -41 4 -47 8 -20 13 -15 29 7 22 14 -5 20
-2 20 9 0 17 -27 20 -65 8z"/>
<path d="M1895 1638 c-17 -76 -92 -186 -147 -214 -53 -27 -90 -12 -148 61
l-52 65 -139 0 c-154 0 -160 -3 -119 -61 22 -30 71 -49 132 -49 46 0 56 -10
131 -137 34 -58 68 -108 76 -111 49 -19 243 95 318 186 49 61 117 195 127 252
7 39 6 37 -38 -60 -20 -45 -122 -157 -163 -178 -22 -12 -21 -11 4 45 21 45 28
78 31 146 5 89 -1 112 -13 55z m-310 -191 c44 -47 69 -66 96 -71 41 -7 94 11
123 43 19 21 42 29 31 11 -4 -6 1 -24 9 -42 9 -17 16 -35 16 -39 0 -14 -102
-78 -157 -99 -62 -23 -62 -24 -138 98 -32 51 -67 99 -79 107 -11 8 -45 17 -73
21 -29 3 -61 13 -70 20 -15 11 -4 13 82 14 l99 0 61 -63z"/>
<path d="M1045 1431 c-21 -4 -31 -13 -33 -29 -4 -29 15 -36 70 -25 37 7 43 12
43 33 0 28 -24 34 -80 21z"/>
<path d="M1085 1363 c-11 -2 -30 -6 -42 -9 -24 -5 -31 -32 -12 -51 13 -13 118
10 130 29 18 28 -19 43 -76 31z"/>
<path d="M1120 1296 c-30 -7 -46 -17 -48 -30 -7 -32 12 -39 67 -25 42 10 51
17 51 35 0 29 -16 33 -70 20z"/>
<path d="M1155 1231 c-23 -5 -30 -12 -30 -31 0 -28 19 -35 72 -25 30 5 34 9
31 33 -3 29 -21 35 -73 23z"/>
<path d="M800 900 c0 -73 3 -90 15 -90 12 0 15 16 15 84 0 65 -3 85 -15 90
-13 4 -15 -9 -15 -84z"/>
<path d="M933 974 c-104 -51 -28 -200 81 -158 11 4 16 19 16 45 0 37 -2 39
-30 39 -20 0 -30 -5 -30 -15 0 -8 7 -15 15 -15 8 0 15 -7 15 -15 0 -18 -50
-21 -68 -3 -17 17 -15 73 3 88 9 8 29 10 50 7 34 -6 56 7 39 23 -19 16 -60 18
-91 4z"/>
<path d="M1103 983 c-9 -3 -13 -31 -13 -89 0 -74 2 -84 18 -84 13 0 18 8 17
27 0 24 4 27 43 29 40 2 42 1 42 -27 0 -19 5 -29 15 -29 12 0 15 16 15 85 0
69 -3 85 -15 85 -11 0 -15 -12 -15 -45 l0 -45 -46 0 -46 0 3 45 c3 48 1 55
-18 48z"/>
<path d="M1593 978 c-46 -22 -35 -68 22 -93 40 -16 47 -45 12 -45 -13 0 -28 5
-35 12 -9 9 -15 9 -24 -1 -11 -10 -9 -15 6 -27 32 -23 83 -18 101 10 22 33 7
61 -40 76 -48 16 -48 45 -1 37 46 -7 57 17 14 32 -17 6 -31 11 -32 10 -1 0
-11 -5 -23 -11z"/>
<path d="M1931 906 c-23 -49 -41 -90 -41 -92 0 -2 9 -4 20 -4 11 0 20 5 20 10
0 6 18 10 39 10 22 0 43 -4 46 -10 3 -5 13 -10 21 -10 19 0 15 14 -31 113
l-33 71 -41 -88z m58 -16 c10 -29 9 -30 -19 -30 -27 0 -28 1 -17 30 6 17 14
30 18 30 4 0 12 -13 18 -30z"/>
<path d="M600 895 c0 -69 3 -85 15 -85 8 0 15 9 15 20 0 15 7 20 25 20 14 0
29 -8 35 -20 6 -11 17 -20 25 -20 18 0 18 5 4 31 -8 16 -7 25 5 38 42 47 2
101 -74 101 l-50 0 0 -85z m104 33 c14 -23 -9 -48 -45 -48 -26 0 -29 3 -29 33
0 19 3 36 6 39 9 10 57 -7 68 -24z"/>
<path d="M1290 964 c0 -12 7 -15 25 -12 25 5 25 5 25 -68 0 -59 3 -74 15 -74
12 0 15 14 15 70 0 68 1 70 25 70 16 0 25 6 25 15 0 12 -14 15 -65 15 -53 0
-65 -3 -65 -16z"/>
<path d="M1730 964 c0 -10 7 -14 23 -12 21 3 22 1 18 -69 -3 -69 -2 -73 18
-73 19 0 21 5 21 73 0 69 1 74 21 73 12 -1 24 5 26 12 4 9 -13 12 -61 12 -53
0 -66 -3 -66 -16z"/>
<path d="M2100 895 c0 -79 1 -85 21 -85 16 0 19 4 14 20 -5 17 -2 20 23 20 21
0 31 -6 35 -20 3 -12 14 -20 26 -20 21 0 21 1 5 25 -15 22 -15 26 0 40 22 22
20 61 -4 85 -15 15 -33 20 -70 20 l-50 0 0 -85z m104 33 c14 -23 -9 -48 -45
-48 -26 0 -29 3 -29 33 0 19 3 36 6 39 9 10 57 -7 68 -24z"/>
<path d="M2280 964 c0 -12 7 -15 25 -12 25 5 25 5 25 -68 0 -64 2 -74 18 -74
15 0 17 10 17 72 0 70 1 73 23 70 15 -2 22 2 22 12 0 13 -13 16 -65 16 -53 0
-65 -3 -65 -16z"/>
</g>
</svg>
